<?xml version="1.0" encoding="UTF-8"?> <svg xmlns="http://www.w3.org/2000/svg" viewBox="0 0 150.9 62.88"><defs><style>.cls-1{fill:#d3d3d3;}.cls-2{fill:#fedf0b;}.cls-3{fill:#1d1d1b;}</style></defs><title>Middel 1</title><g id="Laag_2" data-name="Laag 2"><g id="Laag_1-2" data-name="Laag 1"><path class="cls-1" d="M4.1,55.44H5.32c1.11,0,1.53.6,1.53,1.58v.34c0,1-.31,1.35-.69,1.49.42.13.84.49.84,1.47v.54c0,1.29-.43,1.93-1.67,1.93H4.1Zm1.21,3.13c.66,0,.86-.28.86-1.16v-.34c0-.68-.25-1-.9-1H4.78v2.53Zm-.53,3.62h.49c.83,0,1-.4,1-1.34v-.51c0-.82-.3-1.17-1-1.17H4.78Z" transform="translate(-3.85)"></path><path class="cls-1" d="M12.94,59.18H11.28v3h1.88l-.1.65H10.58V55.44H13v.64H11.28v2.46h1.66Z" transform="translate(-3.85)"></path><path class="cls-1" d="M16.55,55.44h1.28c1.59,0,1.75,1,1.75,2.14V60.5c0,1.13-.17,2.29-1.81,2.29H16.55Zm.7,6.73h.46c.92,0,1.15-.5,1.15-1.51V57.48c0-.89-.16-1.43-1.14-1.43h-.47Z" transform="translate(-3.85)"></path><path class="cls-1" d="M24,59.32v3.47h-.7V55.44h1.22c1.1,0,1.61.48,1.61,1.67v.35c0,1-.32,1.4-.74,1.55.47.17.68.53.68,1.51a20.21,20.21,0,0,0,.07,2.27h-.68a18,18,0,0,1-.08-2.22c0-1-.13-1.25-.88-1.25Zm0-.6h.53c.72,0,.9-.45.9-1.23v-.34c0-.7-.2-1.11-1-1.11H24Z" transform="translate(-3.85)"></path><path class="cls-1" d="M30.5,55.44v7.35h-.7V55.44Z" transform="translate(-3.85)"></path><path class="cls-1" d="M35.49,61.34c0,.79-.07,1.53-1.14,1.53a2.9,2.9,0,0,1-.45,0v-.61l.35,0c.39,0,.54-.13.54-.81v-6h.7Z" transform="translate(-3.85)"></path><path class="cls-1" d="M40.19,62.79l-1.28-7.35h.75l.52,3.36c.15,1,.38,2.35.45,3.09h0c.06-.73.3-2,.45-3.06l.53-3.39h.75l-1.3,7.35Z" transform="translate(-3.85)"></path><path class="cls-1" d="M48.13,59.18H46.47v3h1.87l-.09.65H45.77V55.44h2.45v.64H46.47v2.46h1.66Z" transform="translate(-3.85)"></path><path class="cls-1" d="M51.74,62.79V55.44h.84c.42,1.43,1.48,5.34,1.61,6h0c0-1-.06-2-.06-3.24V55.44h.67v7.35H54c-.43-1.5-1.5-5.55-1.66-6.2h0c.05.88.08,2.1.08,3.43v2.77Z" transform="translate(-3.85)"></path><path class="cls-1" d="M58.68,55.44H59.9c1.11,0,1.53.6,1.53,1.58v.34c0,1-.31,1.35-.68,1.49.41.13.83.49.83,1.47v.54c0,1.29-.42,1.93-1.67,1.93H58.68Zm1.21,3.13c.66,0,.87-.28.87-1.16v-.34c0-.68-.26-1-.91-1h-.49v2.53Zm-.53,3.62h.5c.82,0,1-.4,1-1.34v-.51c0-.82-.3-1.17-1-1.17h-.51Z" transform="translate(-3.85)"></path><path class="cls-1" d="M65.9,60.35l-.37,2.44h-.71L66,55.44h1l1.26,7.35h-.73l-.4-2.44Zm1.17-.64c-.27-1.71-.46-3-.53-3.64h0c0,.56-.3,2.24-.51,3.64Z" transform="translate(-3.85)"></path><path class="cls-1" d="M72.28,60.74v.42c0,.72.25,1.11.79,1.11s.78-.37.78-1.25a1.9,1.9,0,0,0-1-1.83,2.24,2.24,0,0,1-1.18-2.06c0-.93.28-1.8,1.39-1.79S74.43,56,74.43,57v.33h-.69V57c0-.63-.13-1-.66-1s-.68.47-.68,1.07.15,1,.83,1.5a2.48,2.48,0,0,1,1.32,2.4c0,1-.28,2-1.49,2s-1.48-.75-1.48-1.72v-.42Z" transform="translate(-3.85)"></path><path class="cls-1" d="M78.82,55.44v7.35h-.69V55.44Z" transform="translate(-3.85)"></path><path class="cls-1" d="M83.05,60.74v.42c0,.72.25,1.11.79,1.11s.77-.37.77-1.25a1.89,1.89,0,0,0-1-1.83,2.24,2.24,0,0,1-1.18-2.06c0-.93.28-1.8,1.39-1.79S85.2,56,85.2,57v.33h-.69V57c0-.63-.13-1-.66-1s-.68.47-.68,1.07.15,1,.83,1.5a2.48,2.48,0,0,1,1.32,2.4c0,1-.28,2-1.49,2s-1.48-.75-1.48-1.72v-.42Z" transform="translate(-3.85)"></path><path class="cls-1" d="M93.12,55.44h.7v6.71h1.85l-.09.64H93.12Z" transform="translate(-3.85)"></path><path class="cls-1" d="M101.26,59.18H99.6v3h1.87l-.09.65H98.9V55.44h2.45v.64H99.6v2.46h1.66Z" transform="translate(-3.85)"></path><path class="cls-1" d="M107.22,59.18h-1.66v3h1.88l-.1.65h-2.48V55.44h2.45v.64h-1.75v2.46h1.66Z" transform="translate(-3.85)"></path><path class="cls-1" d="M111.5,55.44v5.74c0,.62.22,1.06.8,1.06s.79-.4.79-1.06V55.44h.71v5.71c0,1.14-.51,1.73-1.51,1.73s-1.49-.56-1.49-1.7V55.44Z" transform="translate(-3.85)"></path><path class="cls-1" d="M118.23,62.79l-1-7.35H118c.24,1.83.64,5.07.7,6.18h0c.08-1.09.63-4.41.88-6.18h.73c.26,1.77.8,4.89.88,6.14h0c.08-1.21.51-4.32.75-6.14h.72l-1.12,7.35h-.78c-.24-1.74-.74-4.87-.86-6h0c-.15,1.28-.62,4.29-.89,6Z" transform="translate(-3.85)"></path><path class="cls-1" d="M126.49,60.35l-.37,2.44h-.71l1.22-7.35h1l1.27,7.35h-.74l-.39-2.44Zm1.17-.64c-.27-1.71-.46-3-.53-3.64h0c0,.56-.3,2.24-.51,3.64Z" transform="translate(-3.85)"></path><path class="cls-1" d="M133,59.32v3.47h-.7V55.44h1.22c1.1,0,1.61.48,1.61,1.67v.35c0,1-.32,1.4-.75,1.55.48.17.69.53.69,1.51a20.21,20.21,0,0,0,.07,2.27h-.68a18,18,0,0,1-.08-2.22c0-1-.14-1.25-.88-1.25Zm0-.6h.53c.72,0,.9-.45.9-1.23v-.34c0-.7-.2-1.11-1-1.11H133Z" transform="translate(-3.85)"></path><path class="cls-1" d="M138.8,55.44h1.28c1.59,0,1.75,1,1.75,2.14V60.5c0,1.13-.17,2.29-1.81,2.29H138.8Zm.7,6.73H140c.93,0,1.16-.5,1.16-1.51V57.48c0-.89-.16-1.43-1.15-1.43h-.47Z" transform="translate(-3.85)"></path><path class="cls-1" d="M147.9,59.18h-1.66v3h1.87l-.09.65h-2.48V55.44H148v.64h-1.75v2.46h1.66Z" transform="translate(-3.85)"></path><path class="cls-1" d="M151.51,62.79V55.44h.84c.42,1.43,1.48,5.34,1.61,6h0c0-1-.06-2-.06-3.24V55.44h.66v7.35h-.81c-.43-1.5-1.5-5.55-1.66-6.2h0c.05.88.08,2.1.08,3.43v2.77Z" transform="translate(-3.85)"></path><path class="cls-2" d="M12.8,37.89V31.66a13.34,13.34,0,0,1,.35-3.34,4.05,4.05,0,0,1,1.19-2.05,4.82,4.82,0,0,1,2.36-1A21.63,21.63,0,0,1,20.57,25a21.46,21.46,0,0,1,3.85.28,4.9,4.9,0,0,1,2.37,1A3.92,3.92,0,0,1,28,28.32a13.89,13.89,0,0,1,.34,3.34v6.23Zm2.95-3.7h9.61V30.86A2.38,2.38,0,0,0,25,29.35a1.69,1.69,0,0,0-1.33-.42H17.44a1.71,1.71,0,0,0-1.33.42,2.45,2.45,0,0,0-.36,1.51Z" transform="translate(-3.85)"></path><path class="cls-2" d="M21.94,18.63h3.32V12.27h3.06V22.33H12.8V12.25h3v6.37h3.33V13.19h2.76Z" transform="translate(-3.85)"></path><path class="cls-3" d="M35.28,12.25H46.12c2.73,0,4.71.53,6,1.59s1.86,2.74,1.86,5a8.69,8.69,0,0,1-.69,3.6,5.07,5.07,0,0,1-2,2.36v.25a5.28,5.28,0,0,1,2.91,2.08,6.22,6.22,0,0,1,1.1,3.67,7,7,0,0,1-2,5.39,8,8,0,0,1-5.71,1.89H35.28Zm6.16,24-2.56-2.61h7.36a2.51,2.51,0,0,0,2.07-.77,4.17,4.17,0,0,0,.62-2.58,3.73,3.73,0,0,0-.6-2.4,2.57,2.57,0,0,0-2-.71h-5.5v-4.3h4.43a2.53,2.53,0,0,0,2-.66,4,4,0,0,0,.53-2.4,4.21,4.21,0,0,0-.51-2.44,2.47,2.47,0,0,0-2-.66H38.88l2.56-2.61Z" transform="translate(-3.85)"></path><path class="cls-3" d="M59.15,38.11l7.16-25.86h9.47l7.16,25.86H76.77l-5.54-20h-.37l-5.55,20Z" transform="translate(-3.85)"></path><path class="cls-3" d="M87.78,32.4a27.32,27.32,0,0,0,4,.87,32,32,0,0,0,4.18.29c.72,0,1.37,0,2,0s1.29-.1,2.09-.21v-5L96.22,28a22.67,22.67,0,0,1-4.3-.7,7.45,7.45,0,0,1-2.78-1.37,4.71,4.71,0,0,1-1.47-2.23,11.66,11.66,0,0,1-.43-3.39,12.39,12.39,0,0,1,.87-5.09A5.23,5.23,0,0,1,91,12.46a14,14,0,0,1,5.32-.83,40.81,40.81,0,0,1,9,1l-.79,4.92c-1.29-.24-2.49-.42-3.59-.53s-2.28-.17-3.52-.17c-.83,0-1.48,0-2,0s-1,.09-1.57.17V22.1l3.81.29A15.88,15.88,0,0,1,103,23.52a5.88,5.88,0,0,1,2.86,2.57,9.46,9.46,0,0,1,.89,4.41,9.55,9.55,0,0,1-1,4.75,5.93,5.93,0,0,1-3.29,2.65,17.59,17.59,0,0,1-5.93.83,39.62,39.62,0,0,1-5-.31,34.51,34.51,0,0,1-4.61-.93Z" transform="translate(-3.85)"></path><path class="cls-3" d="M113.06,12.25h6.16V38.11h-6.16Z" transform="translate(-3.85)"></path><path class="cls-3" d="M126.59,32.4a27,27,0,0,0,4,.87,31.83,31.83,0,0,0,4.18.29c.72,0,1.37,0,2,0s1.29-.1,2.09-.21v-5L135,28a22.79,22.79,0,0,1-4.31-.7A7.4,7.4,0,0,1,128,25.9a4.71,4.71,0,0,1-1.47-2.23,11.32,11.32,0,0,1-.43-3.39,12.39,12.39,0,0,1,.87-5.09,5.2,5.2,0,0,1,2.87-2.73,14,14,0,0,1,5.32-.83,40.88,40.88,0,0,1,9,1l-.79,4.92c-1.3-.24-2.5-.42-3.6-.53s-2.27-.17-3.52-.17c-.82,0-1.47,0-1.94,0s-1,.09-1.57.17V22.1l3.8.29a15.89,15.89,0,0,1,5.28,1.13,5.81,5.81,0,0,1,2.85,2.57,9.34,9.34,0,0,1,.89,4.41,9.56,9.56,0,0,1-1,4.75,6,6,0,0,1-3.29,2.65,17.62,17.62,0,0,1-5.94.83,39.46,39.46,0,0,1-4.94-.31,34.2,34.2,0,0,1-4.61-.93Z" transform="translate(-3.85)"></path><polyline class="cls-3" points="76.2 30.35 75.95 30.07 61.66 35.3 57.58 30.67 73.02 25.03 76.2 30.35"></polyline><rect class="cls-3" y="46.46" width="150.9" height="2.83"></rect><rect class="cls-3" width="150.9" height="2.83"></rect><rect class="cls-2" x="-7.02" y="23.65" width="25.64" height="2.83" transform="translate(-23.11 30.87) rotate(-90)"></rect><rect class="cls-3" x="130.69" y="22.64" width="45.29" height="2.83" transform="translate(125.42 177.4) rotate(-90)"></rect></g></g></svg> 