<?xml version="1.0" encoding="UTF-8"?> <svg xmlns="http://www.w3.org/2000/svg" viewBox="0 0 150.33 64.81"><defs><style>.cls-1{fill:#fff;}.cls-2{fill:#fedf0b;}</style></defs><title>Middel 16</title><g id="Laag_2" data-name="Laag 2"><g id="Laag_1-2" data-name="Laag 1"><path class="cls-1" d="M.59,57.2H1.73c1.08,0,1.47.62,1.47,1.58v.38c0,1.05-.28,1.38-.69,1.53.45.12.86.53.86,1.5v.55c0,1.34-.4,2-1.66,2H.59Zm1.18,3.26c.68,0,.89-.32.89-1.28v-.37c0-.72-.27-1.12-1-1.12H1.13v2.77Zm-.64,3.77h.55c.91,0,1.13-.45,1.13-1.5V62.2c0-.88-.36-1.26-1.07-1.26H1.13Z" transform="translate(-0.5)"></path><path class="cls-1" d="M9.33,60.93H7.62v3.28H9.54l-.08.5H7.07V57.2H9.43v.51H7.62v2.72H9.33Z" transform="translate(-0.5)"></path><path class="cls-1" d="M13,57.2h1.2c1.64,0,1.72,1.13,1.72,2.18v3c0,1.15-.17,2.3-1.81,2.3H13Zm.55,7h.51c1,0,1.29-.53,1.29-1.66V59.28c0-1-.18-1.59-1.27-1.59h-.53Z" transform="translate(-0.5)"></path><path class="cls-1" d="M20.34,61.1v3.61h-.55V57.2H20.9c1.12,0,1.59.51,1.59,1.67v.39c0,.92-.28,1.43-.77,1.59.51.15.71.54.71,1.54a18.71,18.71,0,0,0,.08,2.32H22a18.91,18.91,0,0,1-.08-2.27c0-1-.15-1.34-.94-1.34Zm0-.48H21c.79,0,.95-.54.95-1.34V58.9c0-.76-.24-1.21-1.05-1.21h-.54Z" transform="translate(-0.5)"></path><path class="cls-1" d="M26.82,57.2v7.51h-.55V57.2Z" transform="translate(-0.5)"></path><path class="cls-1" d="M31.77,63.31c0,.75-.05,1.49-1.05,1.49a2.34,2.34,0,0,1-.42,0v-.49l.36,0c.4,0,.56-.14.56-.89V57.2h.55Z" transform="translate(-0.5)"></path><path class="cls-1" d="M36.61,64.71,35.3,57.2h.6l.57,3.58c.17,1.08.43,2.51.49,3.23h0c.06-.71.33-2.14.5-3.2l.6-3.61h.58l-1.34,7.51Z" transform="translate(-0.5)"></path><path class="cls-1" d="M44.42,60.93H42.71v3.28h1.92l-.08.5H42.16V57.2h2.36v.51H42.71v2.72h1.71Z" transform="translate(-0.5)"></path><path class="cls-1" d="M48.12,64.71V57.2h.69c.48,1.62,1.62,5.72,1.78,6.48h0c0-1.07-.06-2.13-.06-3.35V57.2h.54v7.51h-.67C49.91,63,48.78,58.8,48.59,58h0c0,.9.08,2.23.08,3.59v3.11Z" transform="translate(-0.5)"></path><path class="cls-1" d="M55.06,57.2H56.2c1.08,0,1.47.62,1.47,1.58v.38c0,1.05-.29,1.38-.7,1.53.46.12.86.53.86,1.5v.55c0,1.34-.4,2-1.65,2H55.06Zm1.17,3.26c.69,0,.9-.32.9-1.28v-.37c0-.72-.27-1.12-1-1.12H55.6v2.77Zm-.63,3.77h.55c.9,0,1.13-.45,1.13-1.5V62.2c0-.88-.36-1.26-1.07-1.26H55.6Z" transform="translate(-0.5)"></path><path class="cls-1" d="M62.17,62.05l-.43,2.66h-.55l1.25-7.51h.79l1.31,7.51H64l-.45-2.66Zm1.26-.51c-.33-1.92-.53-3.24-.59-3.85h0c0,.55-.32,2.3-.56,3.85Z" transform="translate(-0.5)"></path><path class="cls-1" d="M68.46,62.66v.42c0,.81.3,1.23.88,1.23s.88-.36.88-1.41a2,2,0,0,0-1-1.94A2.23,2.23,0,0,1,68,58.87c0-.92.27-1.77,1.33-1.77s1.29.59,1.29,1.64v.31h-.55v-.3c0-.69-.15-1.15-.75-1.15s-.77.54-.77,1.19a1.66,1.66,0,0,0,.87,1.63,2.49,2.49,0,0,1,1.31,2.41c0,1.05-.25,2-1.43,2s-1.43-.74-1.43-1.73v-.42Z" transform="translate(-0.5)"></path><path class="cls-1" d="M75,57.2v7.51h-.55V57.2Z" transform="translate(-0.5)"></path><path class="cls-1" d="M79.2,62.66v.42c0,.81.3,1.23.89,1.23S81,64,81,62.9A2,2,0,0,0,80,61a2.24,2.24,0,0,1-1.2-2.09c0-.92.28-1.77,1.34-1.77s1.28.59,1.28,1.64v.31h-.55v-.3c0-.69-.14-1.15-.75-1.15s-.77.54-.77,1.19a1.67,1.67,0,0,0,.88,1.63,2.49,2.49,0,0,1,1.31,2.41c0,1.05-.26,2-1.43,2s-1.44-.74-1.44-1.73v-.42Z" transform="translate(-0.5)"></path><path class="cls-1" d="M89.52,57.2h.55v7H92l-.08.5H89.52Z" transform="translate(-0.5)"></path><path class="cls-1" d="M97.52,60.93H95.81v3.28h1.92l-.08.5H95.26V57.2h2.36v.51H95.81v2.72h1.71Z" transform="translate(-0.5)"></path><path class="cls-1" d="M103.48,60.93h-1.71v3.28h1.92l-.08.5h-2.39V57.2h2.36v.51h-1.81v2.72h1.71Z" transform="translate(-0.5)"></path><path class="cls-1" d="M107.7,57.2v5.92c0,.68.25,1.17.89,1.17s.88-.43.88-1.16V57.2H110v5.9c0,1.15-.51,1.71-1.45,1.71s-1.43-.54-1.43-1.68V57.2Z" transform="translate(-0.5)"></path><path class="cls-1" d="M114.6,64.71l-1.06-7.51h.59c.27,2,.75,5.59.81,6.61h0c.05-.94.7-4.74,1-6.61h.6c.28,1.86.92,5.44,1,6.58h0c.08-1.16.61-4.65.88-6.58H119l-1.16,7.51h-.64c-.27-1.8-.85-5.44-1-6.48h0c-.15,1.2-.68,4.66-1,6.48Z" transform="translate(-0.5)"></path><path class="cls-1" d="M122.79,62.05l-.42,2.66h-.56l1.25-7.51h.8l1.3,7.51h-.58l-.44-2.66Zm1.27-.51c-.33-1.92-.53-3.24-.6-3.85h0c0,.55-.33,2.3-.56,3.85Z" transform="translate(-0.5)"></path><path class="cls-1" d="M129.22,61.1v3.61h-.55V57.2h1.11c1.12,0,1.59.51,1.59,1.67v.39c0,.92-.28,1.43-.77,1.59.51.15.71.54.71,1.54a18.71,18.71,0,0,0,.08,2.32h-.55a18.91,18.91,0,0,1-.08-2.27c0-1-.15-1.34-.94-1.34Zm0-.48h.65c.78,0,.94-.54.94-1.34V58.9c0-.76-.23-1.21-1.05-1.21h-.54Z" transform="translate(-0.5)"></path><path class="cls-1" d="M135.15,57.2h1.2c1.64,0,1.72,1.13,1.72,2.18v3c0,1.15-.17,2.3-1.81,2.3h-1.11Zm.55,7h.51c1,0,1.29-.53,1.29-1.66V59.28c0-1-.17-1.59-1.27-1.59h-.53Z" transform="translate(-0.5)"></path><path class="cls-1" d="M144.17,60.93h-1.71v3.28h1.92l-.09.5h-2.38V57.2h2.35v.51h-1.8v2.72h1.71Z" transform="translate(-0.5)"></path><path class="cls-1" d="M147.86,64.71V57.2h.69c.48,1.62,1.63,5.72,1.78,6.48h0c0-1.07-.06-2.13-.06-3.35V57.2h.54v7.51h-.67c-.51-1.76-1.64-5.91-1.83-6.7h0c.05.9.08,2.23.08,3.59v3.11Z" transform="translate(-0.5)"></path><path class="cls-2" d="M9.75,37.55v-6.3a13.06,13.06,0,0,1,.35-3.36,4,4,0,0,1,1.2-2.07,4.9,4.9,0,0,1,2.38-1,21.92,21.92,0,0,1,3.91-.29,21.83,21.83,0,0,1,3.89.29,5,5,0,0,1,2.39,1,4,4,0,0,1,1.2,2.07,13.58,13.58,0,0,1,.34,3.36v6.3Zm3-3.74h9.7V30.46a2.34,2.34,0,0,0-.37-1.53,1.67,1.67,0,0,0-1.34-.43H14.43a1.7,1.7,0,0,0-1.34.43,2.41,2.41,0,0,0-.36,1.53Z" transform="translate(-0.5)"></path><path class="cls-2" d="M19,18.11h3.36V11.69h3.08V21.84H9.75V11.67h3.08v6.44h3.36V12.62H19Z" transform="translate(-0.5)"></path><path class="cls-1" d="M31.82,11.69H42.66c2.74,0,4.72.53,6,1.59s1.86,2.74,1.86,5a8.7,8.7,0,0,1-.68,3.6,5.09,5.09,0,0,1-2,2.36v.25a5.24,5.24,0,0,1,2.92,2.09,6.17,6.17,0,0,1,1.1,3.66,7.12,7.12,0,0,1-2,5.4,8,8,0,0,1-5.71,1.88H31.82Zm6.17,24-2.57-2.61h7.37a2.51,2.51,0,0,0,2.07-.77,4.15,4.15,0,0,0,.62-2.58,3.73,3.73,0,0,0-.6-2.4,2.56,2.56,0,0,0-2.05-.7h-5.5V22.32h4.42a2.52,2.52,0,0,0,2-.66,3.92,3.92,0,0,0,.54-2.4,4.12,4.12,0,0,0-.52-2.44,2.43,2.43,0,0,0-2-.66H35.42L38,13.55Z" transform="translate(-0.5)"></path><path class="cls-1" d="M55.7,37.55l7.15-25.86h9.48l7.16,25.86H73.32l-5.54-20H67.4l-5.54,20Z" transform="translate(-0.5)"></path><path class="cls-1" d="M84.33,31.84a25.86,25.86,0,0,0,4,.87,31.83,31.83,0,0,0,4.18.29c.72,0,1.37,0,2,0s1.29-.1,2.09-.21v-5l-3.84-.33a22.79,22.79,0,0,1-4.31-.7,7.4,7.4,0,0,1-2.77-1.37,4.66,4.66,0,0,1-1.47-2.23,11.32,11.32,0,0,1-.43-3.39,12.39,12.39,0,0,1,.87-5.09,5.2,5.2,0,0,1,2.87-2.73,14.23,14.23,0,0,1,5.32-.83,40.88,40.88,0,0,1,9,1L101.08,17q-2-.37-3.6-.54c-1.1-.11-2.27-.17-3.52-.17-.82,0-1.47,0-1.94,0s-1,.08-1.57.16v5.05l3.8.29A15.62,15.62,0,0,1,99.53,23a5.75,5.75,0,0,1,2.85,2.56,9.34,9.34,0,0,1,.89,4.41,9.56,9.56,0,0,1-1,4.75A6,6,0,0,1,99,37.34a17.62,17.62,0,0,1-5.94.83,37.65,37.65,0,0,1-4.94-.31,34.2,34.2,0,0,1-4.61-.93Z" transform="translate(-0.5)"></path><path class="cls-1" d="M109.6,11.69h6.17V37.55H109.6Z" transform="translate(-0.5)"></path><path class="cls-1" d="M123.13,31.84a26,26,0,0,0,4.06.87,31.68,31.68,0,0,0,4.17.29c.72,0,1.38,0,2,0s1.29-.1,2.09-.21v-5l-3.85-.33a22.8,22.8,0,0,1-4.3-.7,7.4,7.4,0,0,1-2.77-1.37A4.66,4.66,0,0,1,123,23.11a11.29,11.29,0,0,1-.44-3.39,12.39,12.39,0,0,1,.87-5.09,5.22,5.22,0,0,1,2.88-2.73,14.21,14.21,0,0,1,5.31-.83,40.81,40.81,0,0,1,9,1L139.89,17q-1.95-.37-3.6-.54c-1.11-.11-2.28-.17-3.52-.17-.83,0-1.47,0-1.94,0s-1,.08-1.58.16v5.05l3.81.29A15.62,15.62,0,0,1,138.34,23a5.75,5.75,0,0,1,2.85,2.56,9.46,9.46,0,0,1,.89,4.41,9.56,9.56,0,0,1-1,4.75,6,6,0,0,1-3.29,2.65,17.7,17.7,0,0,1-5.94.83,37.54,37.54,0,0,1-4.94-.31,34.34,34.34,0,0,1-4.62-.93Z" transform="translate(-0.5)"></path><polyline class="cls-1" points="76.1 29.79 75.85 29.51 61.56 34.74 57.48 30.11 72.91 24.47 76.1 29.79"></polyline><rect class="cls-1" x="0.03" y="46.46" width="150.26" height="2.83"></rect><rect class="cls-1" x="0.03" width="150.26" height="2.83"></rect><rect class="cls-2" x="-11.01" y="23.2" width="25.86" height="2.83" transform="translate(-23.2 26.53) rotate(-90)"></rect><rect class="cls-1" x="126.72" y="22.64" width="45.29" height="2.83" transform="translate(124.81 173.43) rotate(-90)"></rect></g></g></svg> 