<?xml version="1.0" encoding="UTF-8"?>
<svg id="Laag_2" data-name="Laag 2" xmlns="http://www.w3.org/2000/svg" viewBox="0 0 150.9 49.29">
  <defs>
    <style>
      .cls-1 {
        fill: #1d1d1b;
      }

      .cls-2 {
        fill: #fedf0b;
      }
    </style>
  </defs>
  <g id="Laag_1-2" data-name="Laag 1">
    <g id="Laag_2-2" data-name="Laag 2">
      <g id="uuid-e5a5d70c-992b-4dfb-94af-73461eeadafe" data-name="Laag 1-2">
        <path class="cls-2" d="M8.95,37.89v-6.23c-.02-1.12.09-2.25.35-3.34.18-.79.6-1.5,1.19-2.05.68-.54,1.5-.89,2.36-1,1.28-.21,2.57-.3,3.87-.27,1.29-.02,2.58.07,3.85.28.86.12,1.68.46,2.37,1,.6.54,1.03,1.25,1.21,2.04.25,1.1.36,2.22.34,3.34v6.23h-15.54ZM11.9,34.19h9.61v-3.33c.05-.53-.07-1.06-.36-1.51-.36-.32-.85-.48-1.33-.42h-6.23c-.48-.06-.97.1-1.33.42-.28.45-.41.98-.36,1.51v3.33Z"/>
        <path class="cls-2" d="M18.09,18.63h3.32v-6.36h3.06v10.06h-15.52v-10.08h3v6.37h3.33v-5.43h2.76l.05,5.44Z"/>
        <path class="cls-1" d="M31.43,12.25h10.84c2.73,0,4.71.53,6,1.59s1.86,2.74,1.86,5c.03,1.24-.21,2.46-.69,3.6-.4.98-1.1,1.8-2,2.36v.25c1.18.33,2.21,1.07,2.91,2.08.74,1.08,1.13,2.36,1.1,3.67.14,2-.59,3.96-2,5.39-1.59,1.35-3.63,2.03-5.71,1.89h-12.31V12.25ZM37.59,36.25l-2.56-2.61h7.36c.77.08,1.54-.21,2.07-.77.48-.77.7-1.68.62-2.58.08-.84-.13-1.69-.6-2.4-.53-.51-1.26-.77-2-.71h-5.5v-4.3h4.43c.73.08,1.46-.16,2-.66.42-.72.61-1.56.53-2.4.08-.85-.1-1.7-.51-2.44-.53-.51-1.27-.75-2-.66h-6.4l2.56-2.61v22.14Z"/>
        <path class="cls-1" d="M55.3,38.11l7.16-25.86h9.47l7.16,25.86h-6.17l-5.54-20h-.37l-5.55,20h-6.16Z"/>
        <path class="cls-1" d="M83.93,32.4c1.31.39,2.65.68,4,.87,1.39.19,2.78.28,4.18.29h2c.63,0,1.29-.1,2.09-.21v-5l-3.83-.35c-1.45-.09-2.89-.33-4.3-.7-1.01-.26-1.96-.72-2.78-1.37-.69-.59-1.21-1.36-1.47-2.23-.31-1.1-.45-2.25-.43-3.39-.07-1.74.23-3.47.87-5.09.56-1.27,1.6-2.26,2.89-2.76,1.7-.62,3.51-.9,5.32-.83,3.03,0,6.05.33,9,1l-.79,4.92c-1.29-.24-2.49-.42-3.59-.53s-2.28-.17-3.52-.17h-2c-.52,0-1,.09-1.57.17v5.08l3.81.29c1.83.07,3.64.45,5.34,1.13,1.21.51,2.22,1.42,2.86,2.57.65,1.38.95,2.89.89,4.41.08,1.64-.26,3.28-1,4.75-.73,1.26-1.91,2.2-3.29,2.65-1.91.61-3.92.89-5.93.83-1.67,0-3.34-.1-5-.31-1.56-.2-3.1-.52-4.61-.93l.86-5.09Z"/>
        <path class="cls-1" d="M109.21,12.25h6.16v25.86h-6.16V12.25Z"/>
        <path class="cls-1" d="M122.74,32.4c1.31.39,2.65.68,4,.87,1.39.19,2.78.29,4.18.29h2c.63,0,1.29-.1,2.09-.21v-5l-3.86-.35c-1.46-.09-2.9-.33-4.31-.7-.98-.28-1.9-.75-2.69-1.4-.69-.59-1.21-1.36-1.47-2.23-.31-1.1-.46-2.24-.43-3.39-.07-1.74.23-3.47.87-5.09.56-1.25,1.59-2.23,2.87-2.73,1.7-.62,3.51-.9,5.32-.83,3.03,0,6.05.33,9,1l-.79,4.92c-1.3-.24-2.5-.42-3.6-.53s-2.27-.17-3.52-.17h-1.94c-.47,0-1,.09-1.57.17v5.08l3.8.29c1.81.07,3.6.45,5.28,1.13,1.21.51,2.22,1.42,2.85,2.57.65,1.38.96,2.89.89,4.41.08,1.64-.26,3.28-1,4.75-.74,1.25-1.91,2.19-3.29,2.65-1.92.61-3.93.89-5.94.83-1.65,0-3.3-.1-4.94-.31-1.56-.2-3.1-.51-4.61-.93l.81-5.09Z"/>
        <polyline class="cls-1" points="76.2 30.35 75.95 30.07 61.66 35.3 57.58 30.67 73.02 25.03 76.2 30.35"/>
        <rect class="cls-1" y="46.46" width="150.9" height="2.83"/>
        <rect class="cls-1" width="150.9" height="2.83"/>
        <rect class="cls-2" x=".54" y="12.25" width="2.83" height="25.64"/>
        <rect class="cls-1" x="148.06" y="1.42" width="2.83" height="45.29"/>
      </g>
    </g>
  </g>
</svg>